<svg width="320" height="66" viewBox="0 0 320 66" fill="none" xmlns="http://www.w3.org/2000/svg">
<g clip-path="url(#clip0_19_7)">
<path d="M311.795 0H8.20513C3.67356 0 0 3.69365 0 8.25V57.75C0 62.3063 3.67356 66 8.20513 66H311.795C316.326 66 320 62.3063 320 57.75V8.25C320 3.69365 316.326 0 311.795 0Z" fill="#3C6A9D"/>
<path d="M16.4102 48.2995V16.5H43.5688V23.0185H25.6091V28.9203H42.6051V35.4388H25.6091V41.781H43.963V48.2995H16.4102ZM69.3256 40.0193H78.2616C77.4731 47.1984 70.3769 49.1363 63.8939 49.1363C57.3671 49.1363 49.6575 46.1414 49.6575 37.3326C49.6575 28.4799 56.8414 25.3528 64.4633 25.3528C70.4645 25.3528 77.2103 27.2026 77.9988 34.0294H69.3256C68.8437 31.2987 67.1792 30.1976 64.4633 30.1976C60.6962 30.1976 58.5936 33.1485 58.5936 37.2005C58.5936 41.0763 60.3457 44.2915 64.4633 44.2915C67.223 44.2915 69.238 42.8821 69.3256 40.0193ZM91.0524 37.2445C91.0524 41.781 94.1187 44.2915 98.061 44.2915C102.003 44.2915 105.07 41.781 105.07 37.2445C105.07 32.7081 102.003 30.1976 98.061 30.1976C94.1187 30.1976 91.0524 32.7081 91.0524 37.2445ZM82.1164 37.2445C82.1164 32.0034 85.6645 25.3528 98.061 25.3528C110.458 25.3528 114.006 32.0034 114.006 37.2445C114.006 42.4857 110.458 49.1363 98.061 49.1363C85.6645 49.1363 82.1164 42.4857 82.1164 37.2445ZM119.481 48.2995V30.7261C119.481 29.3167 119.437 27.6871 119.306 26.1896H127.454C127.541 27.5109 127.629 28.8322 127.629 30.1535H127.716C129.907 27.2026 133.192 25.3528 137.047 25.3528C145.063 25.3528 148.085 29.9333 148.085 35.703V48.2995H139.675V36.9803C139.675 33.4568 138.142 30.9904 134.331 30.9904C130.87 30.9904 127.892 33.677 127.892 38.5659V48.2995H119.481ZM162.497 37.2445C162.497 41.781 165.563 44.2915 169.505 44.2915C173.448 44.2915 176.514 41.781 176.514 37.2445C176.514 32.7081 173.448 30.1976 169.505 30.1976C165.563 30.1976 162.497 32.7081 162.497 37.2445ZM153.561 37.2445C153.561 32.0034 157.109 25.3528 169.505 25.3528C181.902 25.3528 185.45 32.0034 185.45 37.2445C185.45 42.4857 181.902 49.1363 169.505 49.1363C157.109 49.1363 153.561 42.4857 153.561 37.2445ZM190.926 48.2995V30.7261C190.926 29.3167 190.882 27.6871 190.75 26.1896H198.898C198.986 27.5109 199.073 28.8322 199.073 30.1535H199.161C201.263 27.0264 204.067 25.3528 208.228 25.3528C211.514 25.3528 214.624 26.8503 216.113 30.3297C217.953 27.3788 220.975 25.3528 225.399 25.3528C230.086 25.3528 235.781 27.0705 235.781 35.7471V48.2995H227.371V36.716C227.371 33.4128 226.1 30.9904 222.684 30.9904C219.88 30.9904 217.559 33.2806 217.559 36.5398V48.2995H209.148V36.9803C209.148 33.677 208.403 30.9904 204.593 30.9904C201.658 30.9904 199.336 33.677 199.336 37.729V48.2995H190.926ZM260.005 38.6539H256.5C250.85 38.6539 249.667 40.1514 249.667 42.0013C249.667 43.3666 250.937 44.2915 253.303 44.2915C258.778 44.2915 260.005 40.9442 260.005 38.6539ZM250.937 32.7081H242.264C242.702 26.9383 249.141 25.3528 254.923 25.3528C263.509 25.3528 268.415 27.4228 268.415 34.9102V43.3666C268.415 44.9962 268.459 46.6699 268.59 48.2995H260.443C260.355 47.5508 260.267 45.9211 260.267 44.732H260.18C258.165 48.0793 254.398 49.1363 250.674 49.1363C244.41 49.1363 240.731 46.5818 240.731 41.9572C240.731 36.716 245.637 34.3377 253.872 34.3377H260.005C260.005 30.8142 258.384 29.9333 255.055 29.9333C251.945 29.9333 250.981 31.1665 250.937 32.7081ZM272.445 48.2995L282.301 36.6279L273.672 26.1896H284.535L288.521 32.4878L292.989 26.1896H302.714L293.953 36.6279L303.59 48.2995H292.726L287.514 40.5478L281.907 48.2995H272.445Z" fill="white"/>
</g>
<defs>
<clipPath id="clip0_19_7">
<rect width="320" height="66" fill="white"/>
</clipPath>
</defs>
</svg>
